<svg version="1.2" xmlns="http://www.w3.org/2000/svg" viewBox="0 0 800 100" width="400" height="100">
	<title>LIYITONGXUE 反色LOGO-svg</title>
	<defs>
		<clipPath clipPathUnits="userSpaceOnUse" id="cp1">
			<path d=""/>
		</clipPath>
	</defs>
	<style>
		.s0 { fill: none } 
		.s1 { fill: #333333 } 
		.s2 { fill: #ffffff } 
	</style>
	<g id="Layer">
	</g>
	<g id="Layer">
		<g id="Layer">
			<g id="Layer">
				<path id="Layer" class="s0" d="m333.2-153.5h133.6v136.2h-133.6z"/>
				<g id="Layer">
					<g id="Clip-Path" clip-path="url(#cp1)">
						<g id="Layer">
							<g id="Layer">
								<g id="Layer">
									<g id="Layer">
										<path id="Layer" class="s1" d="m333.2-99c0-30.1 23.9-54.5 53.4-54.5h26.8c29.5 0 53.4 24.4 53.4 54.5v27.2c0 30.1-23.9 54.5-53.4 54.5h-26.8c-29.5 0-53.4-24.4-53.4-54.5z"/>
									</g>
								</g>
							</g>
							<g id="Layer">
								<g id="Layer">
									<path id="Layer" class="s2" d="m382.7-63.3v-10h14.5v39.2l-47.5-30.1v-62.5l14.8-10v63zm37.6-36.9l8.7 7.2 8.1-7.4v-19.9l13.2 8.2v14.5l-13.5 15-0.2 41.1-14.4 7.4v-47.6l-15.5-16.1v-39l13.6 7.4z"/>
								</g>
							</g>
						</g>
					</g>
				</g>
			</g>
			<g id="Layer">
				<g id="Layer">
					<g id="Layer">
						<g id="Layer">
							<path id="Layer" fill-rule="evenodd" class="s2" d="m186.3 63.2l9.7-46.2h15.4l-8.4 40.1h14.5l-1.2 6.1zm59.5-46.2l-9.7 46.2h-15.5l9.7-46.2zm44 0l-18.1 28.8-3.7 17.4h-15.5l4-18.7-7-27.5h17.1l4.8 18.3 10.7-18.3zm19.9 0l-9.8 46.2h-15.3l9.6-46.2zm42.7 0l-1.2 5.5h-11.5l-8.4 40.7h-15.4l8.5-40.7h-11.4l1.3-5.5zm23-0.7q6.1 0 9.9 1.6 3.8 1.6 6 4.9 1.4 2.3 2.2 5.1 0.8 2.9 0.8 6.6 0 3.2-0.5 6.4-0.6 3.2-1.6 6.1-1.1 3-2.6 5.5-1.4 2.6-3.2 4.6-3.4 3.7-7.7 5.2-4.4 1.5-10.8 1.5-6.2 0-10-1.3-3.8-1.3-6-4.2-1.6-2.1-2.5-5.2-0.8-3.1-0.8-7.9 0-8 2.8-14.4 2.8-6.4 8-10.1 3.1-2.2 7-3.3 3.8-1.1 9-1.1zm-8.1 42.4q1.6 0 3.1-1.5 1.5-1.5 2.7-4 1.3-2.5 2.3-5.7 1-3.2 1.7-6.6 0.7-3.5 1.1-6.8 0.4-3.4 0.4-6.2 0-3.7-0.7-5.2-0.8-1.4-2.2-1.4-1.6 0-3.1 1.5-1.5 1.4-2.8 3.9-1.4 2.4-2.4 5.6-1 3.1-1.8 6.5-0.7 3.3-1.1 6.6-0.4 3.3-0.4 6 0 4.2 0.9 5.7 0.9 1.6 2.3 1.6zm75.3-41.7l-9.7 46.2h-16.7l-7.9-33.4-7 33.4h-6.4l9.6-46.2h17l7.5 33.8 7.1-33.8zm22.4 30l1-4.9h18.5l-4.1 21.1h-8.5l-1.3-4.7h-0.3q-1.8 2.2-4.4 3.8-2.5 1.5-6.6 1.5-3.1 0-6-1.1-2.9-1-5.1-3.3-2.3-2.3-3.6-6-1.4-3.7-1.4-9 0-5.6 1.7-10.7 1.8-5.1 5.2-9 3.4-3.9 8.5-6.1 5.2-2.3 12-2.3 5.3 0 9.2 1.2 3.9 1.3 7.4 2.8l-2.7 14.1h-12q0-0.8 0.2-1.9 0.1-1.1 0.2-2.3 0.1-1.2 0.1-2.3 0.1-1.2 0.1-2.1 0-0.6-0.1-1.3 0-0.8-0.3-1.5-0.3-0.7-0.9-1.2-0.6-0.5-1.6-0.5-1.9 0-3.4 1.6-1.5 1.5-2.8 4.1-1.2 2.6-2.1 5.9-0.8 3.3-1.5 6.6-0.6 3.4-0.9 6.7-0.3 3.2-0.3 5.6 0 0.7 0.1 1.8 0 1.1 0.4 2.1 0.4 1.1 1.2 1.9 0.7 0.7 2.2 0.7 2.3 0 4.5-2.6 2.2-2.6 3.4-8.7zm43-30l6.1 14.6 10.9-14.6h8.5l-16.8 20.8 10.6 25.4h-17.6l-6.1-14.5-11 14.5h-8.5l16.8-21-10.5-25.2zm46.3 0l-6.3 29.7q-0.3 1.6-0.5 2.7-0.3 1.2-0.3 2.2 0 2.6 1.8 4.1 1.7 1.5 5.2 1.5 2.5 0 4.1-0.8 1.6-0.9 2.6-2.4 1-1.4 1.6-3.3 0.6-1.9 1.1-4l6-29.7h6.5l-6.2 29.8q-0.7 3.5-2.1 6.6-1.3 3-3.9 5.4-2.5 2.3-6.5 3.6-4 1.4-9.9 1.4-8.2 0-12.1-2.7-3.9-2.8-3.9-8.4 0-2.6 0.6-6.5 0.7-4 1.7-8.5l4.3-20.7zm19.6 46.2l9.6-46.2h30.1l-1.2 5.5h-14.5l-3 14.1h12.2l-1.2 5.4h-12.2l-3.2 15.6h14.5l-1.1 5.6z"/>
						</g>
					</g>
				</g>
				<g id="Layer">
					<path id="Layer" class="s2" d="m198.1 84.6h170.6v2.4h-170.6z"/>
					<path id="Layer" class="s2" d="m431.3 84.6h170.6v2.4h-170.6z"/>
					<g id="Layer">
						<g id="Layer">
							<path id="Layer" fill-rule="evenodd" class="s2" d="m383.6 91.4v-0.3q0-0.3-0.2-0.5-0.1-0.1-0.4-0.1h-6.6q-0.3 0-0.4-0.2-0.2-0.2-0.2-0.4v-0.4q0-0.2 0.2-0.4 0.1-0.2 0.4-0.2h6.6q0.3 0 0.4 0 0.2-0.1 0.2-0.1 0-0.1 0.1-0.2 0.1-0.2 0.3-0.4l0.3-0.3q0.1-0.2 0.1-0.3-0.1-0.2-0.3-0.2h-7.7q-0.3 0-0.4-0.1-0.2-0.2-0.2-0.5v-0.3q0-0.3 0.2-0.4 0.1-0.2 0.4-0.2h3.5q0.3 0 0.4-0.2 0.2-0.2 0.2-0.4v-4q0-0.2-0.2-0.4-0.1-0.1-0.4-0.1h-3.5q-0.3 0-0.4-0.2-0.2-0.2-0.2-0.4v-0.4q0-0.2 0.2-0.4 0.1-0.2 0.4-0.2h3.5q0.3 0 0.4-0.1 0.2-0.2 0.2-0.4 0-0.2 0.2-0.4 0.1-0.1 0.4-0.1h0.3q0.3 0 0.4 0.1 0.2 0.2 0.2 0.4 0 0.2 0.2 0.4 0.2 0.1 0.4 0.1h3.5q0.3 0 0.4 0.2 0.2 0.2 0.2 0.4v0.4q0 0.2-0.2 0.4-0.1 0.2-0.4 0.2h-3.5q-0.2 0-0.4 0.1-0.2 0.2-0.2 0.4v4q0 0.2 0.2 0.4 0.2 0.2 0.4 0.2h3.5q0.3 0 0.4 0.2 0.2 0.1 0.2 0.4v0.3q0 0.3-0.1 0.6-0.1 0.3-0.3 0.5l-0.6 0.6q-0.2 0.2-0.2 0.3 0.1 0.1 0.3 0.1h0.3q0.3 0 0.4 0.2 0.2 0.2 0.2 0.4v0.4q0 0.2-0.2 0.4-0.1 0.2-0.4 0.2h-0.4q-0.2 0-0.4 0.1-0.2 0.2-0.2 0.5v0.6q0 0.2-0.1 0.5-0.1 0.3-0.3 0.5l-0.4 0.4q-0.1 0.2-0.4 0.3-0.3 0.1-0.6 0.1h-6.2q-0.2 0-0.4-0.2-0.1-0.1-0.1-0.4v-0.4q0-0.2 0.1-0.4 0.2-0.1 0.4-0.1h5.9q0.3 0 0.4-0.2 0.2-0.2 0.2-0.4zm-5.7-6.9l-0.4 0.4q-0.2 0.1-0.4 0.3-0.3 0.1-0.6 0.1h-0.1q-0.3 0-0.4-0.2-0.2-0.2-0.2-0.4v-0.4q0-0.2 0.1-0.4 0.2-0.1 0.4-0.1 0.2 0 0.3-0.2 0.2-0.2 0.2-0.4v-1.3q0-0.2 0.1-0.4 0.2-0.2 0.5-0.2h0.3q0.3 0 0.4 0.2 0.2 0.2 0.2 0.4v1.6q0 0.2-0.1 0.5-0.1 0.3-0.3 0.5zm6.9-3.2h0.3q0.3 0 0.4 0.2 0.2 0.2 0.2 0.4v1.3q0 0.2 0.2 0.4 0.1 0.2 0.3 0.2 0.2 0 0.3 0.1 0.2 0.2 0.2 0.4v0.4q0 0.2-0.2 0.4-0.1 0.2-0.4 0.2h-0.1q-0.3 0-0.6-0.1-0.3-0.2-0.4-0.3l-0.4-0.4q-0.2-0.2-0.3-0.5-0.1-0.3-0.1-0.5v-1.6q0-0.2 0.2-0.4 0.1-0.2 0.4-0.2zm3.5-1.9v-0.2q0-0.2 0.2-0.4 0.2-0.2 0.4-0.2h2.9q0.3 0 0.4 0 0.2-0.1 0.2-0.2 0-0.1 0.2-0.2 0.1 0 0.4 0h0.3q0.3 0 0.5 0.1 0.1 0.1 0.1 0.3 0 0.1-0.1 0.4-0.1 0.2-0.3 0.3l-0.4 0.3q-0.1 0.2-0.4 0.3-0.3 0.1-0.6 0.1h-3.2q-0.2 0-0.4-0.1-0.2-0.2-0.2-0.5zm10.9 6.3v3.2q0 0.2-0.1 0.5-0.1 0.3-0.3 0.5l-0.6 0.7q-0.2 0.2-0.2 0.4 0 0.3 0.2 0.4l0.1 0.1q0.1 0.2 0.3 0.3 0.2 0.2 0.3 0.2 0.1 0 0.2 0.1 0.1 0.2 0.1 0.4v0.4q0 0.3-0.1 0.4-0.2 0.2-0.4 0.2-0.2 0-0.5-0.1-0.3-0.1-0.4-0.3l-0.6-0.6q-0.2-0.2-0.5-0.2-0.2 0-0.3 0.2l-0.7 0.6q-0.1 0.2-0.4 0.3-0.3 0.1-0.5 0.1-0.2 0-0.3-0.2-0.2-0.1-0.2-0.4v-0.4q0-0.2 0.1-0.4 0.1-0.1 0.2-0.1 0.1 0 0.3-0.2 0.2-0.1 0.4-0.3l0.1-0.1q0.1-0.1 0.1-0.4 0-0.2-0.1-0.4l-0.7-0.7q-0.2-0.2-0.3-0.5-0.1-0.3-0.1-0.5v-1.1q0-0.3 0.2-0.5 0.1-0.1 0.4-0.1h0.2q0.2 0 0.4 0.1 0.1 0.2 0.1 0.5v0.5q0 0.2 0.2 0.5 0.1 0.3 0.3 0.5l0.3 0.3q0.1 0.1 0.4 0.1 0.2 0 0.4-0.1l0.3-0.3q0.1-0.2 0.3-0.5 0.1-0.3 0.1-0.5v-1q0-0.3-0.2-0.4-0.2-0.2-0.4-0.2h-2.4q-0.3 0-0.4-0.2-0.2-0.2-0.2-0.4v-0.4q0-0.2 0.2-0.4 0.1-0.1 0.4-0.1h3.8q0.2 0 0.4 0.1 0.1 0.2 0.1 0.4zm-10.3 6.4h1.2q0.2 0 0.4-0.1 0.1-0.1 0.1-0.2 0-0.2-0.1-0.3-0.2-0.1-0.4-0.1h-1.2q-0.2 0-0.4-0.1-0.2-0.2-0.2-0.5v-0.2q0-0.2 0.2-0.4 0.2-0.2 0.4-0.2h1.2q0.2 0 0.4-0.1 0.1-0.1 0.1-0.3 0-0.2-0.1-0.3-0.2-0.1-0.4-0.1h-1.2q-0.2 0-0.4-0.2-0.2-0.2-0.2-0.4v-0.2q0-0.3 0.2-0.5 0.2-0.1 0.4-0.1h1.2q0.2 0 0.4-0.2 0.1-0.1 0.1-0.3 0-0.3 0-0.4-0.1-0.2-0.3-0.2-0.1 0-0.2 0.1-0.1 0-0.2 0.1-0.1 0-0.3 0.1-0.2 0-0.4 0h-0.3q-0.2 0-0.4-0.2-0.2-0.1-0.2-0.4v-0.2q0-0.2 0.2-0.4 0.2-0.2 0.4-0.2 0.2 0 0.4-0.1 0.1-0.1 0.1-0.2 0-0.1-0.1-0.2-0.2-0.1-0.4-0.1-0.2 0-0.4-0.2-0.2-0.2-0.2-0.4v-0.4q0-0.2 0.1-0.4 0.1-0.2 0.2-0.2 0.1 0 0.2-0.1 0-0.2 0-0.4v-0.3q0-0.2 0-0.4-0.1-0.1-0.2-0.1-0.1 0-0.2-0.2-0.1-0.2-0.1-0.4v-0.4q0-0.3 0.2-0.4 0.2-0.2 0.4-0.2h4.4q0.3 0 0.5 0.2 0.1 0.1 0.1 0.4v0.4q0 0.2-0.1 0.4 0 0.2-0.1 0.2-0.1 0-0.2 0.1-0.1 0.2-0.1 0.4v0.3q0 0.2 0.1 0.4 0.1 0.1 0.2 0.1 0.1 0 0.1 0.2 0.1 0.2 0.1 0.4v0.4q0 0.2-0.1 0.4-0.2 0.2-0.5 0.2h-1.9q-0.2 0-0.4 0-0.2 0.1-0.2 0.2 0 0 0.2 0.1 0.1 0 0.3 0 0.2 0 0.4 0.2 0.1 0.2 0.1 0.4v6q0 0.2 0 0.5-0.2 0.3-0.3 0.5l-0.2 0.2q-0.1 0.2-0.4 0.3-0.3 0.1-0.5 0.1h-1.5q-0.2 0-0.4-0.2-0.2-0.1-0.2-0.4v-0.2q0-0.3 0.2-0.4 0.2-0.2 0.4-0.2zm1.3-9.5v0.3q0 0.2 0.2 0.4 0.1 0.1 0.4 0.1h0.7q0.2 0 0.4-0.1 0.2-0.2 0.2-0.4v-0.3q0-0.2-0.2-0.4-0.2-0.1-0.4-0.1h-0.7q-0.3 0-0.4 0.1-0.2 0.2-0.2 0.4zm3.4 4.4q-0.1 0.2-0.2 0.5-0.1 0.2-0.1 0.5v3.5q0 0.3 0.1 0.4 0.1 0.2 0.2 0.2 0.2 0 0.2 0.2 0.1 0.1 0.1 0.4v0.2q0 0.3-0.1 0.4-0.1 0.2-0.3 0.2-0.2 0-0.4-0.1-0.3-0.1-0.4-0.3l-0.2-0.2q-0.1-0.2-0.3-0.5-0.1-0.3-0.1-0.5v-4.9q0-0.2 0.1-0.4 0.1-0.2 0.2-0.2 0.1 0 0.2-0.1 0.1-0.2 0.1-0.4 0-0.2 0.2-0.4 0.1-0.1 0.4-0.1 0.3 0 0.5 0.2 0.1 0.1 0.1 0.4v0.2q0 0.2-0.1 0.5 0 0.2-0.2 0.3zm5.6-3.7v0.4q0 0.2-0.1 0.4-0.1 0.1-0.2 0.1-0.1 0-0.4-0.1-0.2-0.1-0.3-0.3l-0.3-0.3q-0.2-0.2-0.3-0.5-0.1-0.3-0.1-0.6v-2q0-0.2-0.2-0.4-0.2-0.2-0.4-0.2h-0.4q-0.2 0-0.4 0.2-0.1 0.2-0.1 0.4v2q0 0.3-0.1 0.6-0.1 0.3-0.3 0.5l-0.3 0.3q-0.2 0.2-0.4 0.3-0.2 0.1-0.3 0.1-0.2 0-0.3-0.1-0.1-0.2-0.1-0.4v-0.4q0-0.2 0.1-0.4 0-0.2 0.1-0.2 0.1 0 0.2-0.2 0-0.1 0-0.4v-3.3q0-0.2 0.2-0.4 0.1-0.1 0.4-0.1h3.1q0.2 0 0.4 0.1 0.1 0.2 0.1 0.4v3.3q0 0.3 0.1 0.4 0.1 0.2 0.2 0.2 0 0 0.1 0.2 0 0.2 0 0.4zm1.7 9.6v-14.2q0-0.2 0.1-0.4 0.2-0.1 0.4-0.1h9.7q0.3 0 0.4 0.1 0.2 0.2 0.2 0.4v13q0 0.3-0.1 0.5-0.1 0.3-0.3 0.5l-0.4 0.4q-0.2 0.2-0.5 0.3-0.3 0.1-0.5 0.1h-1.6q-0.2 0-0.3-0.2-0.2-0.1-0.2-0.4v-0.3q0-0.3 0.2-0.5 0.1-0.1 0.3-0.1h1.3q0.3 0 0.4-0.2 0.2-0.2 0.2-0.4v-11.1q0-0.2-0.2-0.4-0.1-0.2-0.4-0.2h-6.7q-0.2 0-0.4 0.2-0.1 0.2-0.1 0.4v12.6q0 0.2-0.2 0.4-0.2 0.2-0.4 0.2h-0.4q-0.2 0-0.4-0.2-0.1-0.2-0.1-0.4zm8.1-2.4l-0.4 0.5q-0.1 0.2-0.4 0.3-0.3 0.1-0.5 0.1h-4q-0.2 0-0.4-0.2-0.2-0.1-0.2-0.4v-6q0-0.3 0.2-0.4 0.2-0.2 0.4-0.2h5.2q0.2 0 0.4 0.2 0.1 0.1 0.1 0.4v4.8q0 0.2-0.1 0.5-0.1 0.3-0.3 0.4zm-3.8-0.6h2.2q0.2 0 0.4-0.2 0.1-0.2 0.1-0.4v-3q0-0.2-0.1-0.4-0.2-0.2-0.4-0.2h-2.2q-0.2 0-0.4 0.2-0.2 0.2-0.2 0.4v3q0 0.2 0.2 0.4 0.2 0.2 0.4 0.2zm4.3-8.2v0.4q0 0.2-0.2 0.4-0.2 0.2-0.4 0.2h-5.2q-0.2 0-0.4-0.2-0.2-0.2-0.2-0.4v-0.4q0-0.2 0.2-0.4 0.2-0.1 0.4-0.1h5.2q0.2 0 0.4 0.1 0.2 0.2 0.2 0.4zm10.4 6.7q0-0.1 0.1-0.3 0.2-0.2 0.4-0.3l1.2-1q0.2-0.1 0.1-0.2 0-0.2-0.3-0.2h-7.4q-0.3 0-0.4-0.1-0.2-0.2-0.2-0.4v-0.4q0-0.2 0.2-0.4 0.1-0.2 0.4-0.2h9.6q0.3 0 0.4 0.2 0.2 0.2 0.2 0.4v0.7q0 0.2-0.1 0.5-0.2 0.3-0.3 0.4l-1.6 1.3q-0.3 0.1-0.2 0.2 0 0.1 0.3 0.1h1.3q0.3 0 0.4 0.2 0.2 0.2 0.2 0.4v0.4q0 0.2-0.2 0.4-0.1 0.2-0.4 0.2h-1.6q-0.2 0-0.4 0.1-0.2 0.2-0.2 0.4v0.9q0 0.2-0.1 0.5-0.1 0.3-0.3 0.5l-0.4 0.4q-0.2 0.2-0.5 0.3-0.2 0.1-0.5 0.1h-4.9q-0.2 0-0.4-0.2-0.2-0.1-0.2-0.4v-0.3q0-0.3 0.2-0.5 0.2-0.1 0.4-0.1h4.6q0.3 0 0.5-0.2 0.1-0.2 0.1-0.4v-0.6q0-0.2-0.1-0.4-0.2-0.1-0.5-0.1h-5.3q-0.3 0-0.4-0.2-0.2-0.2-0.2-0.4v-0.4q0-0.2 0.2-0.4 0.1-0.2 0.4-0.2h5.3q0.3 0 0.5-0.1 0.1-0.1 0.1-0.2zm3.9-8.3l-0.4 0.3q-0.2 0.2-0.4 0.4-0.3 0.1-0.6 0.1h-0.7q-0.3 0-0.4-0.2-0.2-0.2-0.2-0.4v-0.4q0-0.2 0.2-0.4 0.1-0.2 0.4-0.2h0.4q0.3 0 0.4-0.1 0.2-0.2 0.2-0.5 0-0.2 0.2-0.4 0.1-0.1 0.4-0.1h0.3q0.3 0 0.4 0.1 0.2 0.2 0.2 0.4v0.4q0 0.2-0.1 0.5-0.1 0.3-0.3 0.5zm-8.9 3.4v0.3q0 0.2-0.2 0.4-0.1 0.2-0.4 0.2h-0.4q-0.2 0-0.4-0.2-0.1-0.2-0.1-0.4v-1.9q0-0.2 0.1-0.4 0.2-0.2 0.4-0.2h9.7q0.3 0 0.4 0.2 0.2 0.2 0.2 0.4v1.9q0 0.2-0.2 0.4-0.1 0.2-0.4 0.2h-0.3q-0.3 0-0.4-0.2-0.2-0.2-0.2-0.4v-0.3q0-0.3-0.2-0.5-0.1-0.1-0.4-0.1h-6.7q-0.2 0-0.4 0.1-0.1 0.2-0.1 0.5zm1.1-2.6h-0.9q-0.2 0-0.5-0.1-0.2-0.2-0.4-0.4l-0.4-0.3q-0.2-0.2-0.3-0.5-0.1-0.3-0.1-0.5v-0.4q0-0.2 0.1-0.4 0.2-0.1 0.4-0.1h0.4q0.3 0 0.4 0.1 0.2 0.2 0.2 0.4 0 0.3 0.1 0.5 0.2 0.1 0.4 0.1h0.6q0.3 0 0.4 0.2 0.2 0.2 0.2 0.4v0.4q0 0.2-0.2 0.4-0.1 0.2-0.4 0.2zm3.8 0h-0.9q-0.2 0-0.5-0.1-0.3-0.2-0.4-0.4l-0.5-0.3q-0.1-0.2-0.2-0.5-0.1-0.3-0.1-0.5v-0.4q0-0.2 0.1-0.4 0.2-0.1 0.4-0.1h0.4q0.2 0 0.4 0.1 0.2 0.2 0.2 0.4 0 0.3 0.1 0.5 0.2 0.1 0.4 0.1h0.6q0.2 0 0.4 0.2 0.2 0.2 0.2 0.4v0.4q0 0.2-0.2 0.4-0.2 0.2-0.4 0.2z"/>
						</g>
					</g>
				</g>
			</g>
		</g>
	</g>
</svg>